<?xml version="1.0" standalone="no"?><!DOCTYPE svg PUBLIC "-//W3C//DTD SVG 1.1//EN"
        "http://www.w3.org/Graphics/SVG/1.1/DTD/svg11.dtd">
<svg t="1610107944532" class="icon" viewBox="0 0 1024 1024" version="1.1" xmlns="http://www.w3.org/2000/svg" p-id="9058"
     xmlns:xlink="http://www.w3.org/1999/xlink" width="200" height="200">
    <defs>
        <style type="text/css"></style>
    </defs>
    <path d="M544.2048 745.0368a38.4 38.4 0 0 1 2.304 51.4048l-2.6368 2.8928-58.7776 57.1904a38.4 38.4 0 0 1-56.6528-51.712l2.6624-2.9184 58.7776-57.1904a38.4 38.4 0 0 1 54.3232 0.3328z m-78.08-186.6496a38.4 38.4 0 0 1 2.3296 51.4048l-2.6368 2.8928-114.432 112.0512a38.4 38.4 0 0 1-56.6528-51.712l2.6624-2.9184 114.432-112.0256a38.4 38.4 0 0 1 54.2976 0.3072z m-186.624-78.4384a38.4 38.4 0 0 1 2.304 51.4048l-2.6368 2.8928-60.5696 59.8784a38.4 38.4 0 0 1-56.6272-51.712l2.6368-2.9184 60.5696-59.8528a38.4 38.4 0 0 1 54.3232 0.3072z"
          fill="#FE9120" p-id="9059"></path>
    <path d="M625.2032 244.8128l135.7312-136.0128a108.9792 108.9792 0 0 1 182.528 48.9984 109.4144 109.4144 0 0 1-28.2112 105.5744l-134.7328 134.9632 120.1408 121.6768a94.2592 94.2592 0 0 1-0.3584 132.7616l-40.2688 40.32a36.4288 36.4288 0 0 1-51.5584 0 36.5568 36.5568 0 0 1 0-51.6608l13.568-13.568a55.7568 55.7568 0 0 0 0-78.7968l-146.0224-146.304 186.8288-187.0848a38.8608 38.8608 0 0 0 0-54.8608 38.7072 38.7072 0 0 0-54.784 0l-186.88 187.136-131.9424-132.096a74.8544 74.8544 0 0 0-105.9328 0l-53.1968 53.2992 423.936 424.576-50.7136 50.7904-423.8848-424.576-106.368 106.496a75.1104 75.1104 0 0 0 0 106.0864l0.1792 0.1792 53.0688 53.1712 79.4112 79.5136 52.8128 52.9152 79.3856 79.5136 53.12 53.1968a74.88 74.88 0 0 0 105.984 0l157.0048-157.2864a74.752 74.752 0 0 1 0 105.5232l-103.8336 103.9872a149.6832 149.6832 0 0 1-211.8656 0L120.6784 585.0368a150.1696 150.1696 0 0 1 0-212.224l210.2528-210.5856a149.632 149.632 0 0 1 211.84 0l82.432 82.5856z"
          fill="#59D3C8" p-id="9060"></path>
</svg>