<?xml version="1.0" standalone="no"?><!DOCTYPE svg PUBLIC "-//W3C//DTD SVG 1.1//EN"
        "http://www.w3.org/Graphics/SVG/1.1/DTD/svg11.dtd">
<svg t="1610107937118" class="icon" viewBox="0 0 1024 1024" version="1.1" xmlns="http://www.w3.org/2000/svg" p-id="8919"
     xmlns:xlink="http://www.w3.org/1999/xlink" width="200" height="200">
    <defs>
        <style type="text/css"></style>
    </defs>
    <path d="M517.461333 21.105778a181.248 181.248 0 0 0-181.020444 175.388444H107.747556a46.250667 46.250667 0 0 0 0 92.387556h51.029333v516.664889c0 96.995556 65.706667 176.241778 147.000889 176.241777h414.151111c81.123556 0 147.000889-78.791111 147.000889-176.241777V289.166222h46.193778a46.250667 46.250667 0 0 0 0-92.387555h-214.926223A180.679111 180.679111 0 0 0 517.461333 21.105778zM422.912 196.494222c3.413333-50.062222 44.202667-88.860444 94.72-88.860444 50.460444 0 91.306667 38.968889 94.208 88.860444h-188.871111zM305.607111 895.431111c-28.785778 0-60.472889-36.977778-60.472889-89.884444V289.166222h535.153778v516.835556c0 52.792889-31.744 89.884444-60.529778 89.884444h-414.151111v-0.455111z"
          fill="#59D3C8" p-id="8920"></path>
    <path d="M367.672889 784.440889c21.048889 0 38.456889-21.048889 38.456889-47.559111V465.464889c0-26.510222-17.237333-47.616-38.456889-47.616-21.048889 0-38.513778 21.105778-38.513778 47.616v271.36c0 26.396444 16.952889 47.616 38.513778 47.616z m139.377778 0c21.048889 0 38.456889-21.048889 38.456889-47.559111V465.464889c0-26.510222-17.237333-47.616-38.513778-47.616-21.048889 0-38.513778 21.105778-38.513778 47.616v271.36c0 26.396444 17.408 47.616 38.513778 47.616z m146.488889 0c21.105778 0 38.513778-21.048889 38.513777-47.559111V465.464889c0-26.510222-17.237333-47.616-38.513777-47.616-21.048889 0-38.456889 21.105778-38.456889 47.616v271.36c0 26.396444 16.782222 47.616 38.456889 47.616z"
          fill="#59D3C8" p-id="8921"></path>
</svg>