<?xml version="1.0" standalone="no"?><!DOCTYPE svg PUBLIC "-//W3C//DTD SVG 1.1//EN"
        "http://www.w3.org/Graphics/SVG/1.1/DTD/svg11.dtd">
<svg t="1609931915849" class="icon" viewBox="0 0 1024 1024" version="1.1" xmlns="http://www.w3.org/2000/svg"
     p-id="22071" xmlns:xlink="http://www.w3.org/1999/xlink" width="200" height="200">
    <defs>
        <style type="text/css"></style>
    </defs>
    <path d="M193.6 20L20 193.6v252l557.6 557.6 425.6-425.6L445.6 20H193.6z m133.6 307.2c-33.6 33.6-88.8 33.6-122.4 0s-33.6-88.8 0-122.4 88.8-33.6 122.4 0 33.6 88.8 0 122.4z"
          fill="#41DDC8" p-id="22072"></path>
    <path d="M578.4 1024c-5.6 0-10.4-1.6-14.4-5.6L5.6 460C2.4 456 0 451.2 0 445.6V193.6c0-5.6 2.4-10.4 5.6-14.4L179.2 5.6c4-3.2 8.8-5.6 14.4-5.6h252c5.6 0 10.4 2.4 14.4 5.6l557.6 557.6c8 8 8 20.8 0 28.8L592 1017.6c-3.2 4.8-8 6.4-13.6 6.4zM40.8 436.8l537.6 537.6 396-396L436.8 40.8H201.6L40.8 201.6v235.2z m224.8-64c-28.8 0-55.2-11.2-76-31.2-20-20-31.2-47.2-31.2-76 0-28.8 11.2-55.2 31.2-76s47.2-31.2 76-31.2 55.2 11.2 76 31.2c20 20 31.2 47.2 31.2 76s-11.2 55.2-31.2 76c-20 20-47.2 31.2-76 31.2z m0-173.6c-17.6 0-34.4 7.2-47.2 19.2-12.8 12.8-19.2 28.8-19.2 47.2s7.2 34.4 19.2 47.2c12.8 12.8 28.8 19.2 47.2 19.2s34.4-7.2 47.2-19.2c12.8-12.8 19.2-28.8 19.2-47.2 0-17.6-7.2-34.4-19.2-47.2-12.8-12-29.6-19.2-47.2-19.2z"
          fill="#603813" p-id="22073"></path>
    <path d="M764.8 679.2c-5.6 0-10.4-1.6-14.4-5.6l-296-296c-8-8-8-20.8 0-28.8s20.8-8 28.8 0l296 296c8 8 8 20.8 0 28.8-4 4-8.8 5.6-14.4 5.6zM659.2 785.6c-5.6 0-10.4-1.6-14.4-5.6l-18.4-18.4c-8-8-8-20.8 0-28.8s20.8-8 28.8 0l18.4 18.4c8 8 8 20.8 0 28.8-4 3.2-9.6 5.6-14.4 5.6zM576.8 703.2c-5.6 0-10.4-1.6-14.4-5.6L348.8 483.2c-8-8-8-20.8 0-28.8s20.8-8 28.8 0l213.6 213.6c8 8 8 20.8 0 28.8-4 4-9.6 6.4-14.4 6.4z"
          fill="#603813" p-id="22074"></path>
</svg>