<?xml version="1.0" standalone="no"?><!DOCTYPE svg PUBLIC "-//W3C//DTD SVG 1.1//EN" "http://www.w3.org/Graphics/SVG/1.1/DTD/svg11.dtd"><svg t="1609911163441" class="icon" viewBox="0 0 1024 1024" version="1.1" xmlns="http://www.w3.org/2000/svg" p-id="4135" xmlns:xlink="http://www.w3.org/1999/xlink" width="200" height="200"><defs><style type="text/css"></style></defs><path d="M696.319952 10.240264h-116.44925a63.487983 63.487983 0 0 0-44.871668 18.575355L512 51.814653l-22.999034-22.999034A63.487983 63.487983 0 0 0 444.129298 10.240264H327.680048a184.319952 184.319952 0 0 0 123.146208 173.813714C249.528388 213.627091 94.924908 387.072166 94.924908 596.684911 94.924908 827.023411 281.64102 1013.760003 512 1013.760003s417.075092-186.736591 417.075092-417.075092c0-209.592266-154.60348-382.9759-355.983268-412.630933A184.319952 184.319952 0 0 0 696.319952 10.240264z" fill="#83E1E5" p-id="4136"></path><path d="M512 1024c-235.519939 0-427.315089-191.69275-427.315089-427.315089A426.864529 426.864529 0 0 1 103.485546 471.040144a10.239997 10.239997 0 1 1 19.558395 6.021118 407.551894 407.551894 0 0 0-17.879035 119.726049C105.164906 821.002293 287.662138 1003.520005 512 1003.520005s406.835094-182.517713 406.835094-406.835094c0-200.396748-149.278681-373.432223-347.21783-402.493335a10.239997 10.239997 0 0 1-1.925119-19.783675A174.264275 174.264275 0 0 0 685.690835 20.480261h-105.820133a52.879346 52.879346 0 0 0-37.64223 15.585276l-22.978554 22.999034a10.239997 10.239997 0 0 1-14.499836 0l-22.978554-22.999034A52.879346 52.879346 0 0 0 444.129298 20.480261h-105.820133a174.264275 174.264275 0 0 0 115.99869 153.92764 10.239997 10.239997 0 0 1-1.925119 19.783675 406.732694 406.732694 0 0 0-181.800913 74.99774 10.239997 10.239997 0 0 1-12.165117-16.383995 427.765649 427.765649 0 0 1 158.658519-72.724462A194.826189 194.826189 0 0 1 317.440051 10.240264a10.239997 10.239997 0 0 1 10.239997-10.239998h116.36733a73.236461 73.236461 0 0 1 52.121586 21.585915l15.831036 15.749116 15.749116-15.749116A73.236461 73.236461 0 0 1 579.870702 0.000266H696.319952a10.239997 10.239997 0 0 1 10.239997 10.239998 194.846669 194.846669 0 0 1-99.532774 169.738195 427.437969 427.437969 0 0 1 332.287914 416.706452C939.315089 832.30725 747.622339 1024 512 1024z" fill="#1C1D21" p-id="4137"></path><path d="M133.120099 432.128154a10.239997 10.239997 0 0 1-9.297918-14.540796 428.031889 428.031889 0 0 1 68.423662-104.447973 10.239997 10.239997 0 1 1 15.319036 13.598716 406.978454 406.978454 0 0 0-65.146863 99.491814A10.239997 10.239997 0 0 1 133.120099 432.128154zM223.498315 305.725627a10.239997 10.239997 0 0 1-7.086078-17.633276c5.386239-5.160959 10.977277-10.239997 16.650236-15.134716a10.239997 10.239997 0 0 1 13.373436 15.523836 462.8274 462.8274 0 0 0-15.851516 14.335997 10.239997 10.239997 0 0 1-7.086078 2.908159z" fill="#1C1D21" p-id="4138"></path><path d="M512 596.684911m-221.900742 0a221.900742 221.900742 0 1 0 443.801484 0 221.900742 221.900742 0 1 0-443.801484 0Z" fill="#FDDF7F" p-id="4139"></path><path d="M317.440051 500.142216a10.239997 10.239997 0 0 1-8.970238-15.175676c2.785279-5.079039 5.816318-10.117117 8.970238-14.970876a10.239997 10.239997 0 0 1 17.162235 11.202557c-2.887679 4.423679-5.631999 9.011198-8.191998 13.639677a10.239997 10.239997 0 0 1-8.970237 5.304318z" fill="#1C1D21" p-id="4140"></path><path d="M512 828.805171a232.26362 232.26362 0 0 1-218.193863-311.541679 10.239997 10.239997 0 0 1 19.251195 7.004158 211.865545 211.865545 0 1 0 40.427509-67.850222 10.239997 10.239997 0 1 1-15.319036-13.578237A232.14074 232.14074 0 1 1 512 828.805171z" fill="#1C1D21" p-id="4141"></path><path d="M384.839713 160.583904m23.162874 0l208.015306 0q23.162874 0 23.162874 23.162874l0 0.02048q0 23.162874-23.162874 23.162874l-208.015306 0q-23.162874 0-23.162874-23.162874l0-0.02048q0-23.162874 23.162874-23.162874Z" fill="#AAB1BA" p-id="4142"></path><path d="M615.997413 217.08821H408.002587a33.423351 33.423351 0 0 1 0-66.826223h207.994826a33.423351 33.423351 0 0 1 0 66.826223zM408.002587 170.823902a12.943357 12.943357 0 0 0 0 25.866233h207.994826a12.943357 12.943357 0 0 0 0-25.866233z" fill="#1C1D21" p-id="4143"></path><path d="M562.769907 330.19922a10.239997 10.239997 0 0 1-10.239998-10.239997v-22.527994a84.787178 84.787178 0 0 0-25.006073-60.395504l-15.523836-15.626236-15.523836 15.523836a84.787178 84.787178 0 0 0-25.006073 60.395504v22.527994a10.239997 10.239997 0 0 1-20.479995 0v-22.527994a105.123813 105.123813 0 0 1 31.006712-74.874861l22.753274-22.773754a10.239997 10.239997 0 0 1 12.943357-1.269759 9.953277 9.953277 0 0 1 1.658879 1.392639l22.650874 22.650874a105.123813 105.123813 0 0 1 31.006712 74.874861v22.527994a10.239997 10.239997 0 0 1-10.239997 10.342397z" fill="#1C1D21" p-id="4144"></path><path d="M522.117117 575.590517h-20.234234a6.512638 6.512638 0 0 1-6.533119-6.512639v-23.920634a6.533118 6.533118 0 0 1 6.533119-6.533118h47.820787a21.073915 21.073915 0 0 0 0-42.147829H536.575994V475.136143a21.073915 21.073915 0 1 0-42.127349 0v21.913594a48.762867 48.762867 0 0 0-41.16479 48.107507v23.920634a48.742387 48.742387 0 0 0 48.660468 48.680948h20.234234a6.533118 6.533118 0 0 1 6.533119 6.512638v23.920634a6.533118 6.533118 0 0 1-6.533119 6.533118h-47.882227a21.073915 21.073915 0 1 0 0 42.147829h20.090875v21.422074a21.073915 21.073915 0 1 0 42.127349 0v-23.592953a48.783347 48.783347 0 0 0 34.263031-46.510068v-23.920634a48.742387 48.742387 0 0 0-48.660468-48.680947z" fill="#ECF4F7" p-id="4145"></path><path d="M515.440639 749.568071a31.313912 31.313912 0 0 1-31.293432-31.313912v-11.182077h-9.850877a31.313912 31.313912 0 1 1 0-62.627823h44.113908v-16.486396h-16.527355a58.982385 58.982385 0 0 1-58.900465-58.920945v-23.879674a59.391985 59.391985 0 0 1 41.164789-56.176625V475.136143a31.313912 31.313912 0 1 1 62.668784 0v11.182077h2.949119a31.313912 31.313912 0 0 1 0 62.627824h-44.175348v16.486395h16.527355a58.982385 58.982385 0 0 1 58.900465 58.920945v23.838714a58.634225 58.634225 0 0 1-34.201591 53.534706v16.568315A31.334392 31.334392 0 0 1 515.440639 749.568071z m-41.144309-84.643818a10.833917 10.833917 0 1 0 0 21.667835h20.090875a10.239997 10.239997 0 0 1 10.239997 10.239997v21.422074a10.833917 10.833917 0 1 0 21.647354 0v-23.551993a10.239997 10.239997 0 0 1 7.208958-9.789438 38.72767 38.72767 0 0 0 27.054073-36.72063v-23.920634a38.48191 38.48191 0 0 0-38.42047-38.44095h-20.234234a16.793596 16.793596 0 0 1-16.773116-16.752636v-23.920634a16.793596 16.793596 0 0 1 16.773116-16.773115h47.820787a10.833917 10.833917 0 0 0 0-21.667835H536.575994a10.239997 10.239997 0 0 1-10.239998-10.239997V475.136143a10.833917 10.833917 0 1 0-21.647354 0v21.913594a10.239997 10.239997 0 0 1-8.663038 10.117117 38.70719 38.70719 0 0 0-32.501751 37.99039v23.920634a38.48191 38.48191 0 0 0 38.42047 38.44095h20.234234a16.793596 16.793596 0 0 1 16.773116 16.752636v23.920634a16.793596 16.793596 0 0 1-16.773116 16.773115z" fill="#1C1D21" p-id="4146"></path></svg>