<?xml version="1.0" standalone="no"?><!DOCTYPE svg PUBLIC "-//W3C//DTD SVG 1.1//EN" "http://www.w3.org/Graphics/SVG/1.1/DTD/svg11.dtd"><svg t="1609911151685" class="icon" viewBox="0 0 1024 1024" version="1.1" xmlns="http://www.w3.org/2000/svg" p-id="3999" xmlns:xlink="http://www.w3.org/1999/xlink" width="200" height="200"><defs><style type="text/css"></style></defs><path d="M339.2 115.2c19.2 6.4 44.8 19.2 76.8 19.2 25.6 0 51.2-6.4 76.8-19.2 6.4 0 25.6 6.4 38.4 12.8 25.6 12.8 44.8 25.6 70.4 25.6 12.8 0 25.6 0 38.4-6.4 19.2-6.4 32-12.8 38.4-12.8-6.4 6.4-12.8 19.2-19.2 25.6-19.2 12.8-70.4 102.4-147.2 102.4-70.4 0-134.4-64-160-108.8-12.8-19.2-12.8-32-12.8-38.4M512 332.8c185.6 0 345.6 243.2 345.6 441.6 0 89.6-25.6 108.8-57.6 121.6-57.6 19.2-153.6 19.2-288 19.2s-230.4 0-281.6-19.2c-32-12.8-64-32-64-121.6C166.4 576 326.4 332.8 512 332.8M332.8 64c-6.4 0-12.8 0-12.8 6.4-25.6 19.2-32 64-6.4 102.4 32 57.6 108.8 128 198.4 128 89.6 0 153.6-89.6 179.2-115.2 32-25.6 57.6-76.8 25.6-96-6.4-6.4-12.8-6.4-25.6-6.4s-32 6.4-64 19.2c-6.4 0-12.8 6.4-12.8 6.4-38.4 0-83.2-38.4-121.6-38.4-6.4 0-12.8 0-19.2 6.4-19.2 6.4-38.4 12.8-57.6 12.8-38.4 0-64-25.6-83.2-25.6zM512 288c-217.6 0-390.4 268.8-390.4 486.4C121.6 960 236.8 960 512 960c281.6 0 390.4 0 390.4-185.6 0-217.6-172.8-486.4-390.4-486.4z" fill="#333333" p-id="4000"></path><path d="M627.2 627.2H396.8v44.8h230.4v-44.8z" fill="#333333" p-id="4001"></path><path d="M640 486.4H576L505.6 633.6h25.6L640 486.4z" fill="#333333" p-id="4002"></path><path d="M448 486.4H384l102.4 147.2H512L448 486.4z m179.2 230.4H396.8v44.8h230.4v-44.8z" fill="#333333" p-id="4003"></path><path d="M531.2 627.2h-44.8v224h44.8V627.2zM800 416c-12.8-25.6-134.4-108.8-198.4-128h-6.4s-25.6 6.4-57.6 6.4c-6.4 6.4-19.2 6.4-25.6 6.4-57.6 19.2-134.4 38.4-166.4 38.4-12.8 0-25.6-6.4-32-19.2-12.8-19.2-6.4-44.8 6.4-57.6 12.8-12.8 38.4-32 89.6-12.8 44.8 19.2 89.6 19.2 121.6 19.2 12.8-6.4 25.6-6.4 32-6.4h32c32-6.4 108.8-19.2 153.6 19.2 51.2 38.4 96 44.8 108.8 38.4l6.4 25.6c-25.6 6.4-83.2 6.4-140.8-44.8-19.2-19.2-51.2-19.2-83.2-19.2 70.4 32 153.6 96 172.8 121.6l-12.8 12.8zM377.6 268.8c-12.8 0-25.6 6.4-32 12.8-12.8 6.4-12.8 19.2-12.8 25.6l6.4 6.4c25.6 0 70.4-12.8 115.2-25.6-12.8-6.4-32-6.4-51.2-12.8-6.4-6.4-19.2-6.4-25.6-6.4z" fill="#333333" p-id="4004"></path><path d="M832 332.8c0 19.2 19.2 38.4 38.4 38.4s38.4-19.2 38.4-38.4-19.2-38.4-38.4-38.4c-25.6 0-38.4 19.2-38.4 38.4zM774.4 416c0 19.2 19.2 38.4 38.4 38.4s38.4-19.2 38.4-38.4-19.2-38.4-38.4-38.4c-25.6 0-38.4 12.8-38.4 38.4z" fill="#333333" p-id="4005"></path></svg>