<?xml version="1.0" standalone="no"?><!DOCTYPE svg PUBLIC "-//W3C//DTD SVG 1.1//EN" "http://www.w3.org/Graphics/SVG/1.1/DTD/svg11.dtd"><svg t="1609911219596" class="icon" viewBox="0 0 1024 1024" version="1.1" xmlns="http://www.w3.org/2000/svg" p-id="6015" xmlns:xlink="http://www.w3.org/1999/xlink" width="200" height="200"><defs><style type="text/css"></style></defs><path d="M266.1 861.1c0 14.9-12.1 26.9-26.9 26.9h-69.6c-14.9 0-26.9-12.1-26.9-26.9V634.4c0-14.9 12.1-26.9 26.9-26.9h69.6c14.9 0 26.9 12.1 26.9 26.9v226.7zM472 861.1c0 14.9-12.1 26.9-26.9 26.9h-69.6c-14.9 0-26.9-12.1-26.9-26.9V482.4c0-14.9 12.1-26.9 26.9-26.9h69.6c14.9 0 26.9 12.1 26.9 26.9v378.7zM883.9 861.1c0 14.9-12.1 26.9-26.9 26.9h-69.6c-14.9 0-26.9-12.1-26.9-26.9V349.4c0-14.9 12.1-26.9 26.9-26.9H857c14.8 0 26.9 12.1 26.9 26.9v511.7zM677.9 861.1c0 14.9-12.1 26.9-26.9 26.9h-69.6c-14.9 0-26.9-12.1-26.9-26.9V539.4c0-14.9 12.1-26.9 26.9-26.9H651c14.9 0 26.9 12.1 26.9 26.9v321.7z" fill="#70c6f2" p-id="6016"></path><path d="M586 385l-25.4-38.8 312.7-204.5 25.4 38.8z" fill="#ffcf10" p-id="6017"></path><path d="M898.7 180.5c-10.7 7-25.1 4-32.1-6.7s-4-25.1 6.7-32.1 25.1-4 32.1 6.7 4 25.1-6.7 32.1zM586 385c-10.7 7-25.1 4-32.1-6.7s-4-25.1 6.7-32.1 25-4 32.1 6.7c7 10.7 4 25.1-6.7 32.1z" fill="#ffcf10" p-id="6018"></path><path d="M581.8 344l-16.9 43.2-233-90.2 16.9-43.2z" fill="#ffcf10" p-id="6019"></path><path d="M348.8 253.8c11.9 4.7 17.8 18.1 13.1 30-4.7 11.9-18.1 17.8-30 13.1-11.9-4.7-17.8-18.1-13.1-30 4.7-11.9 18.1-17.8 30-13.1zM581.8 344c11.9 4.7 17.8 18.1 13.1 30-4.6 11.9-18.1 17.8-30 13.1-11.9-4.7-17.8-18.1-13.1-30 4.6-11.8 18.1-17.7 30-13.1z" fill="#ffcf10" p-id="6020"></path><path d="M150.5 440.4L122.9 403l198.9-146.4 27.5 37.4z" fill="#ffcf10" p-id="6021"></path><path d="M349.3 294c-10.3 7.6-24.8 5.4-32.4-4.9s-5.4-24.8 4.9-32.4c10.3-7.6 24.8-5.4 32.4 4.9 7.6 10.3 5.4 24.8-4.9 32.4zM150.4 440.4c-10.3 7.6-24.8 5.4-32.4-4.9-7.6-10.3-5.4-24.8 4.9-32.4 10.3-7.6 24.8-5.4 32.4 4.9 7.7 10.3 5.5 24.8-4.9 32.4z" fill="#ffcf10" p-id="6022"></path></svg>